PathFileType	4	(X/Y/Z)	/Users/itak/Documents/Research/Walk-IL/dataset/trc/00300_00010.trc
DataRate	CameraRate	NumFrames	NumMarkers	Units	OrigDataRate	OrigDataStartFrame	OrigNumFrames
100.000000	100.000000	4	54	mm	100.000000	283	454
Frame#	Time	RPSI			LPSI			L3			STRN			T10			C7			CLAV			RBAK			LBAK			LSHO			LUPA			LAEL			LAOL			LWTS			LWPS			LFRA			LIFD			LHPS			LHTS			RSHO			RUPA			RAEL			RAOL			RWTS			RWPS			RFRA			RIFD			RHTS			RHPS			RBHD			LFHD			RFHD			LBHD			LHIP			RHIP			RASI			LASI			LKNE			LTHI			LANK			LTIP			LTOE			LMT1			LMT5			LHEE			RKNE			RTHI			RANK			RTIP			RTOE			RMT1			RMT5			RHEE			*53			
		X1	Y1	Z1	X2	Y2	Z2	X3	Y3	Z3	X4	Y4	Z4	X5	Y5	Z5	X6	Y6	Z6	X7	Y7	Z7	X8	Y8	Z8	X9	Y9	Z9	X10	Y10	Z10	X11	Y11	Z11	X12	Y12	Z12	X13	Y13	Z13	X14	Y14	Z14	X15	Y15	Z15	X16	Y16	Z16	X17	Y17	Z17	X18	Y18	Z18	X19	Y19	Z19	X20	Y20	Z20	X21	Y21	Z21	X22	Y22	Z22	X23	Y23	Z23	X24	Y24	Z24	X25	Y25	Z25	X26	Y26	Z26	X27	Y27	Z27	X28	Y28	Z28	X29	Y29	Z29	X30	Y30	Z30	X31	Y31	Z31	X32	Y32	Z32	X33	Y33	Z33	X34	Y34	Z34	X35	Y35	Z35	X36	Y36	Z36	X37	Y37	Z37	X38	Y38	Z38	X39	Y39	Z39	X40	Y40	Z40	X41	Y41	Z41	X42	Y42	Z42	X43	Y43	Z43	X44	Y44	Z44	X45	Y45	Z45	X46	Y46	Z46	X47	Y47	Z47	X48	Y48	Z48	X49	Y49	Z49	X50	Y50	Z50	X51	Y51	Z51	X52	Y52	Z52	X53	Y53	Z53	X54	Y54	Z54	

284	2.83	503.84521484375	955.6132202148438	-34.53007125854492	329.1836853027344	954.4356079101562	-58.11771774291992	400.8887939453125	1018.164489746094	-60.66797637939453	432.046142578125	1203.140747070312	-297.5753173828125	384.9062805175781	1131.52587890625	-40.59506225585938	368.5103759765625	1378.269653320312	-79.08753967285156	412.487060546875	1302.70166015625	-235.8481292724609	435.5570068359375	1239.859741210938	-16.37764167785645	263.8630065917969	1339.846801757812	-86.15334320068359	232.0587615966797	1347.282836914062	-187.4739532470703	158.8508758544922	1224.830810546875	-184.1146087646484	161.7027587890625	1024.229736328125	-223.9801788330078	203.6231994628906	1001.059692382812	-149.4654846191406	268.849853515625	845.291259765625	-339.8700256347656	201.2375183105469	816.0958251953125	-332.2272033691406	173.8692169189453	928.0502319335938	-264.9678955078125	300.4991760253906	678.6424560546875	-409.7129516601562	221.385986328125	737.1430053710938	-365.6359252929688	272.2464294433594	763.379150390625	-399.6974792480469	538.666748046875	1362.313232421875	-107.443977355957	601.6979370117188	1310.204956054688	-79.95210266113281	643.810791015625	1056.915649414062	-8.882214546203613	550.6455078125	1043.98193359375	-19.8607292175293	649.3190307617188	815.0888061523438	-72.62250518798828	696.2149658203125	828.6273803710938	-2.509078025817871	668.2097778320312	989.7588500976562	-11.54112815856934	657.4967041015625	632.6634521484375	-34.89633560180664	679.1162719726562	699.1738891601562	-63.79539489746094	704.8905639648438	714.7136840820312	0.8484686017036438	457.3538208007812	1533.411499023438	-87.92490386962891	356.2777404785156	1583.702514648438	-268.5440063476562	448.318115234375	1581.06298828125	-257.6691589355469	311.6817626953125	1528.270263671875	-106.8732681274414	239.7976837158203	904.66796875	-135.6168060302734	615.7308349609375	907.72900390625	-127.658447265625	551.57275390625	912.0568237304688	-250.2081756591797	299.1610717773438	903.6394653320312	-272.8942565917969	270.4042358398438	455.7137145996094	-79.23332214355469	250.2579956054688	592.3857421875	-119.3996887207031	233.2658538818359	77.98828125	170.6167755126953	243.7268524169922	260.4634704589844	46.41476821899414	387.1160278320312	34.29996490478516	33.81653594970703	384.0217590332031	37.18228530883789	113.4284820556641	283.1409912109375	42.90001678466797	63.00732421875	259.9890441894531	96.6309814453125	239.6865539550781	605.603271484375	479.7110595703125	-323.7857055664062	626.9337768554688	721.7586669921875	-234.2994384765625	627.87158203125	36.00372695922852	-409.466064453125	603.93603515625	366.1265563964844	-378.6274719238281	543.0585327148438	61.56957244873047	-588.3170166015625	512.677734375	46.65097045898438	-528.8701782226562	629.073974609375	35.00085830688477	-515.2708740234375	585.3728637695312	30.198974609375	-351.2055969238281	nan	nan	nan	
285	2.84	507.2517395019531	958.109619140625	-43.84943008422852	332.6778869628906	955.30810546875	-67.71647644042969	404.7226257324219	1019.466918945312	-70.52810668945312	436.001708984375	1205.099853515625	-306.5095825195312	389.269775390625	1132.455444335938	-49.5022087097168	373.6527099609375	1379.371826171875	-86.87615966796875	416.8717041015625	1304.484252929688	-244.2238006591797	440.7001953125	1240.540283203125	-24.9585132598877	268.8714294433594	1341.220092773438	-93.82782745361328	236.6717529296875	1349.14794921875	-194.97802734375	163.2836151123047	1226.6953125	-191.2723846435547	165.7758026123047	1025.593627929688	-230.2745208740234	209.2011413574219	1003.198608398438	-156.2010040283203	269.3463745117188	840.5661010742188	-341.488525390625	201.2148132324219	813.0382080078125	-332.1182861328125	176.5160369873047	927.8421020507812	-268.8320007324219	296.5696716308594	670.482666015625	-404.7570190429688	219.3324279785156	732.5067749023438	-362.2896118164062	270.4636840820312	756.1035766601562	-397.8639526367188	543.66357421875	1363.10205078125	-115.9250717163086	606.8399047851562	1310.4736328125	-89.1961669921875	649.5916748046875	1056.323486328125	-21.43499565124512	556.2891235351562	1043.300537109375	-31.89705657958984	654.8447875976562	814.630859375	-86.16697692871094	702.235107421875	828.3502807617188	-16.50631713867188	673.9803466796875	989.3402099609375	-24.67151832580566	663.5333862304688	632.4151611328125	-48.62917709350586	684.8656616210938	698.8799438476562	-77.79441833496094	711.0848388671875	714.4849853515625	-13.2788028717041	462.6932678222656	1534.881958007812	-95.71929168701172	360.6930236816406	1585.37109375	-275.7548828125	452.7791748046875	1582.662963867188	-265.374267578125	316.9163818359375	1529.822265625	-113.8985214233398	243.7412261962891	904.791259765625	-145.1111602783203	619.6088256835938	911.1348876953125	-137.0583343505859	555.6161499023438	914.61181640625	-259.5681762695312	302.9795227050781	904.0906372070312	-281.7335205078125	274.3306579589844	455.8211669921875	-89.00969696044922	254.6031951904297	592.4586791992188	-129.0935668945312	233.6078186035156	82.53077697753906	167.5570220947266	245.7961883544922	262.6483459472656	39.70241928100586	387.33203125	34.30428314208984	33.35011291503906	384.3176879882812	38.55408477783203	112.6061630249023	283.67138671875	43.26437759399414	61.68631362915039	260.10693359375	103.3006591796875	236.0294189453125	608.5407104492188	481.4519348144531	-332.6929016113281	630.6812133789062	724.8204956054688	-244.4279327392578	628.580322265625	35.60082244873047	-410.024169921875	606.2119750976562	366.7070007324219	-385.9485778808594	545.0576171875	58.29509353637695	-590.034423828125	514.3663940429688	45.32784652709961	-530.2236328125	630.537353515625	32.34479904174805	-515.7463989257812	585.7484130859375	31.14654159545898	-351.9205627441406	nan	nan	nan	
286	2.85	510.6195373535156	960.5968627929688	-53.12882995605469	336.1100463867188	956.3414916992188	-77.23600006103516	408.3938903808594	1020.974365234375	-80.09336853027344	439.9512939453125	1207.328491210938	-315.45654296875	393.4785461425781	1133.716064453125	-58.30122756958008	378.7279663085938	1380.744750976562	-94.69858551025391	421.21826171875	1306.497924804688	-252.5716247558594	445.7679138183594	1241.540649414062	-33.50102615356445	273.7928466796875	1342.914306640625	-101.5924606323242	241.2895812988281	1351.310791015625	-202.5990905761719	167.6562194824219	1228.941528320312	-198.6945037841797	169.8043365478516	1027.365966796875	-236.7014465332031	214.5688018798828	1005.762023925781	-163.0060882568359	269.5776672363281	836.2257080078125	-342.7257690429688	200.9434051513672	810.5692138671875	-331.7356262207031	178.9806823730469	928.1716918945312	-272.6647644042969	292.2115783691406	662.7971801757812	-398.5979614257812	216.9555816650391	728.5109252929688	-358.2976684570312	268.4047241210938	749.17724609375	-395.2267150878906	548.5806884765625	1364.166870117188	-124.4333801269531	611.8850708007812	1311.037109375	-98.48829650878906	655.2863159179688	1056.0517578125	-34.10853576660156	561.8878784179688	1042.976928710938	-43.94985580444336	660.414794921875	814.6256103515625	-100.1785202026367	708.2395629882812	828.3955688476562	-30.8774299621582	679.6869506835938	989.235107421875	-37.97936630249023	669.6122436523438	632.50244140625	-62.83701324462891	690.6661987304688	698.961669921875	-92.24304962158203	717.3056030273438	714.5936279296875	-27.86449813842773	468.0003051757812	1536.508422851562	-103.5140914916992	365.0928344726562	1587.28271484375	-282.9386901855469	457.2217102050781	1584.49951171875	-273.0534362792969	322.1301879882812	1531.545654296875	-120.9317092895508	247.6355438232422	905.1544189453125	-154.5351409912109	623.4179077148438	914.5802001953125	-146.4087371826172	559.629638671875	917.4541625976562	-268.9030151367188	306.8735961914062	904.9467163085938	-290.533935546875	278.1634216308594	455.9341735839844	-99.44408416748047	258.914306640625	592.61962890625	-139.1080017089844	234.0604705810547	87.40740966796875	164.0755615234375	247.8456573486328	264.9578857421875	32.43175506591797	387.5431518554688	34.30830001831055	32.85474395751953	384.6599731445312	40.00974273681641	111.6863327026367	284.2524108886719	43.68263626098633	60.20584106445312	260.3533020019531	110.4485473632812	231.810546875	611.637939453125	483.1594543457031	-341.2979125976562	634.3948974609375	727.9572143554688	-254.4415893554688	629.353759765625	35.13936233520508	-410.4625854492188	608.718017578125	367.3013610839844	-392.8538818359375	547.0003051757812	55.85047149658203	-591.4136962890625	516.0402221679688	44.70949554443359	-531.271728515625	631.9588623046875	30.17572212219238	-516.0435180664062	586.2423706054688	31.87833595275879	-352.5076599121094	nan	nan	nan	
287	2.86	514.0551147460938	963.0160522460938	-62.33787155151367	339.5632934570312	957.49462890625	-86.59738922119141	411.9650573730469	1022.627624511719	-89.30446624755859	443.8725280761719	1209.753051757812	-324.3744812011719	397.5735778808594	1135.264038085938	-66.97556304931641	383.7173461914062	1382.344604492188	-102.5377349853516	425.5120544433594	1308.68212890625	-260.8711242675781	450.7613525390625	1242.813720703125	-41.98679351806641	278.6136779785156	1344.880004882812	-109.4214553833008	245.9015502929688	1353.716430664062	-210.3157196044922	171.9744567871094	1231.515991210938	-206.4067840576172	173.7235412597656	1029.4931640625	-243.2386474609375	219.6400299072266	1008.706604003906	-169.8404693603516	269.5465698242188	832.357421875	-343.6182861328125	200.4379730224609	808.7554931640625	-331.1715087890625	181.238037109375	929.03515625	-276.4925537109375	287.5240478515625	655.7972412109375	-391.280517578125	214.2985687255859	725.27099609375	-353.7868957519531	266.1304016113281	742.7547607421875	-391.8401184082031	553.4075317382812	1365.463134765625	-132.9664001464844	616.8285522460938	1311.863159179688	-107.8222579956055	660.8932495117188	1056.08642578125	-46.84172439575195	567.4354858398438	1043.0029296875	-55.92926025390625	666.0162353515625	815.0799560546875	-114.6371612548828	714.2125854492188	828.7378540039062	-45.58999252319336	685.3232421875	989.4215698242188	-51.40655136108398	675.7266235351562	632.9085083007812	-77.61786651611328	696.526611328125	699.4254150390625	-107.1842193603516	723.5400390625	715.0128784179688	-42.93821716308594	473.2481079101562	1538.232666015625	-111.2983627319336	369.4683837890625	1589.386474609375	-290.0903625488281	461.6331176757812	1586.522705078125	-280.6946716308594	327.296142578125	1533.38720703125	-127.9756774902344	251.5128936767578	905.7488403320312	-163.7912902832031	627.1962890625	917.9243774414062	-155.7297821044922	563.589599609375	920.46484375	-278.2154846191406	310.8153991699219	906.1965942382812	-299.2510681152344	281.8476257324219	456.0292663574219	-110.5321502685547	263.1397094726562	592.8555297851562	-149.4101257324219	234.6862335205078	92.61717987060547	160.1712799072266	249.8882293701172	267.3790588378906	24.61647605895996	387.7445678710938	34.30562591552734	32.33250427246094	385.0670776367188	41.56850814819336	110.6469879150391	284.8841552734375	44.1804313659668	58.56190872192383	260.8145751953125	118.0617141723633	227.0033111572266	614.8121948242188	484.7671508789062	-349.5268249511719	638.0868530273438	731.0010375976562	-264.3189697265625	630.1166381835938	34.65081787109375	-410.8192749023438	611.308837890625	367.8689880371094	-399.3323364257812	548.6852416992188	54.00502014160156	-592.5180053710938	517.5242309570312	44.5444221496582	-532.0655517578125	633.1971435546875	28.48276519775391	-516.2355346679688	586.8186645507812	32.41872024536133	-352.977294921875	nan	nan	nan	
